<mxfile host="app.diagrams.net" modified="2023-08-25T14:22:28.282Z" agent="Mozilla/5.0 (X11; Linux x86_64; rv:109.0) Gecko/20100101 Firefox/112.0" etag="8ndCJy1HTv3fzj9eE99S" version="21.6.9" type="github">
  <diagram id="R2lEEEUBdFMjLlhIrx00" name="Page-1">
    <mxGraphModel dx="1434" dy="723" grid="1" gridSize="10" guides="1" tooltips="1" connect="1" arrows="1" fold="1" page="1" pageScale="1" pageWidth="850" pageHeight="1100" math="0" shadow="0" extFonts="Permanent Marker^https://fonts.googleapis.com/css?family=Permanent+Marker">
      <root>
        <mxCell id="0" />
        <mxCell id="1" parent="0" />
        <mxCell id="FJJPj6CCMOWU3tP7AJ2_-1" value="Berçario" style="whiteSpace=wrap;html=1;aspect=fixed;" vertex="1" parent="1">
          <mxGeometry x="10" y="90" width="80" height="80" as="geometry" />
        </mxCell>
        <mxCell id="FJJPj6CCMOWU3tP7AJ2_-2" value="" style="endArrow=none;html=1;rounded=0;" edge="1" parent="1">
          <mxGeometry relative="1" as="geometry">
            <mxPoint x="90" y="129.5" as="sourcePoint" />
            <mxPoint x="160" y="130" as="targetPoint" />
          </mxGeometry>
        </mxCell>
        <mxCell id="FJJPj6CCMOWU3tP7AJ2_-3" value="TER" style="rhombus;whiteSpace=wrap;html=1;" vertex="1" parent="1">
          <mxGeometry x="160" y="90" width="80" height="80" as="geometry" />
        </mxCell>
        <mxCell id="FJJPj6CCMOWU3tP7AJ2_-4" value="" style="endArrow=none;html=1;rounded=0;" edge="1" parent="1">
          <mxGeometry relative="1" as="geometry">
            <mxPoint x="240" y="129.5" as="sourcePoint" />
            <mxPoint x="330" y="130" as="targetPoint" />
          </mxGeometry>
        </mxCell>
        <mxCell id="FJJPj6CCMOWU3tP7AJ2_-5" value="&lt;div&gt;Bebê&lt;/div&gt;&lt;div&gt;&lt;br&gt;&lt;/div&gt;&lt;div&gt;Nome&lt;/div&gt;&lt;div&gt;Data de N&lt;/div&gt;&lt;div&gt;Mãe&lt;/div&gt;&lt;div&gt;Peso&lt;/div&gt;&lt;div&gt;Médico&lt;br&gt;&lt;/div&gt;" style="whiteSpace=wrap;html=1;aspect=fixed;" vertex="1" parent="1">
          <mxGeometry x="330" y="75" width="110" height="110" as="geometry" />
        </mxCell>
        <mxCell id="FJJPj6CCMOWU3tP7AJ2_-6" value="" style="endArrow=none;html=1;rounded=0;" edge="1" parent="1">
          <mxGeometry relative="1" as="geometry">
            <mxPoint x="440" y="129.5" as="sourcePoint" />
            <mxPoint x="540" y="130" as="targetPoint" />
          </mxGeometry>
        </mxCell>
        <mxCell id="FJJPj6CCMOWU3tP7AJ2_-7" value="TER" style="rhombus;whiteSpace=wrap;html=1;" vertex="1" parent="1">
          <mxGeometry x="530" y="90" width="80" height="80" as="geometry" />
        </mxCell>
        <mxCell id="FJJPj6CCMOWU3tP7AJ2_-8" value="" style="endArrow=none;html=1;rounded=0;" edge="1" parent="1">
          <mxGeometry relative="1" as="geometry">
            <mxPoint x="610" y="129.5" as="sourcePoint" />
            <mxPoint x="700" y="130" as="targetPoint" />
          </mxGeometry>
        </mxCell>
        <mxCell id="FJJPj6CCMOWU3tP7AJ2_-9" value="&lt;div&gt;Mãe&lt;/div&gt;&lt;div&gt;&lt;br&gt;&lt;/div&gt;&lt;div&gt;Nome&lt;/div&gt;&lt;div&gt;Endereço&lt;/div&gt;&lt;div&gt;Telefone&lt;/div&gt;&lt;div&gt;Data de N&lt;br&gt;&lt;/div&gt;" style="whiteSpace=wrap;html=1;aspect=fixed;" vertex="1" parent="1">
          <mxGeometry x="700" y="75" width="110" height="110" as="geometry" />
        </mxCell>
        <mxCell id="FJJPj6CCMOWU3tP7AJ2_-10" value="" style="endArrow=none;html=1;rounded=0;exitX=0.5;exitY=1;exitDx=0;exitDy=0;" edge="1" parent="1" source="FJJPj6CCMOWU3tP7AJ2_-7">
          <mxGeometry relative="1" as="geometry">
            <mxPoint x="520" y="230" as="sourcePoint" />
            <mxPoint x="570" y="290" as="targetPoint" />
          </mxGeometry>
        </mxCell>
        <mxCell id="FJJPj6CCMOWU3tP7AJ2_-11" value="&lt;div&gt;Médico&lt;/div&gt;&lt;div&gt;&lt;br&gt;&lt;/div&gt;&lt;div&gt;CRM&lt;/div&gt;&lt;div&gt;Nome&lt;/div&gt;&lt;div&gt;Telefone&lt;/div&gt;&lt;div&gt;Especialidade&lt;br&gt;&lt;/div&gt;" style="whiteSpace=wrap;html=1;aspect=fixed;" vertex="1" parent="1">
          <mxGeometry x="520" y="290" width="100" height="100" as="geometry" />
        </mxCell>
        <mxCell id="FJJPj6CCMOWU3tP7AJ2_-12" value="1" style="text;html=1;align=center;verticalAlign=middle;resizable=0;points=[];autosize=1;strokeColor=none;fillColor=none;" vertex="1" parent="1">
          <mxGeometry x="90" y="98" width="30" height="30" as="geometry" />
        </mxCell>
        <mxCell id="FJJPj6CCMOWU3tP7AJ2_-13" value="N" style="text;html=1;align=center;verticalAlign=middle;resizable=0;points=[];autosize=1;strokeColor=none;fillColor=none;" vertex="1" parent="1">
          <mxGeometry x="295" y="98" width="30" height="30" as="geometry" />
        </mxCell>
        <mxCell id="FJJPj6CCMOWU3tP7AJ2_-14" value="N" style="text;html=1;align=center;verticalAlign=middle;resizable=0;points=[];autosize=1;strokeColor=none;fillColor=none;" vertex="1" parent="1">
          <mxGeometry x="445" y="98" width="30" height="30" as="geometry" />
        </mxCell>
        <mxCell id="FJJPj6CCMOWU3tP7AJ2_-15" value="1" style="text;html=1;align=center;verticalAlign=middle;resizable=0;points=[];autosize=1;strokeColor=none;fillColor=none;" vertex="1" parent="1">
          <mxGeometry x="670" y="98" width="30" height="30" as="geometry" />
        </mxCell>
        <mxCell id="FJJPj6CCMOWU3tP7AJ2_-17" value="1" style="text;html=1;align=center;verticalAlign=middle;resizable=0;points=[];autosize=1;strokeColor=none;fillColor=none;" vertex="1" parent="1">
          <mxGeometry x="580" y="258" width="30" height="30" as="geometry" />
        </mxCell>
      </root>
    </mxGraphModel>
  </diagram>
</mxfile>
